# xmcd
#
# Track frame offsets: 
#        150
#        15976
#        38490
#        54289
#        75104
#
# Disc length: 1294 seconds
#
# Revision: 0
# Processed by: cddbd v1.5.2PL0 Copyright (c) Steve Scherf et al.
# Submitted via: ExactAudioCopy v1.3
#
DISCID=1f050c05
DTITLE=Westmont Blues - Luis Robinson Session
DYEAR=2019
DGENRE=Blues
TTITLE0=Shuffle Serrano (En Vivo)
TTITLE1=If You Need Me (En Vivo)
TTITLE2=Muddy in Casa (En Vivo)
TTITLE3=Caldonia (En Vivo)
TTITLE4=I’ve Got My Mojo Working (En Vivo)
EXTD=
EXTT0=
EXTT1=
EXTT2=
EXTT3=
EXTT4=
PLAYORDER=
